# 3ds Max Wavefront OBJ Exporter v0.97b - (c)2007 guruware
# File Created: 24.07.2019 17:07:21

#
# object Magic_Box_low
#

v  35.8668 200.0000 -99.6108
v  -34.1333 200.0000 -99.6108
v  35.8667 200.0000 100.3891
v  -99.1333 200.0000 -34.6108
v  -99.1333 200.0000 35.3891
v  -34.1333 200.0000 100.3891
v  100.8667 200.0000 35.3891
v  100.8668 200.0000 -34.6108
v  100.8667 135.0000 100.3892
v  -34.1333 0.0000 100.3891
v  35.8667 0.0000 100.3892
v  100.8667 65.0000 100.3892
v  100.8668 135.0000 -99.6108
v  -99.1333 65.0000 -99.6109
v  -99.1333 135.0000 -99.6109
v  35.8667 0.0000 -99.6109
v  -34.1333 0.0000 -99.6109
v  -99.1333 135.0000 100.3892
v  -99.1333 0.0000 -34.6109
v  -99.1333 0.0000 35.3891
v  100.8667 0.0000 -34.6109
v  100.8667 0.0000 35.3892
v  -99.1333 65.0000 100.3891
v  100.8667 65.0000 -99.6109
v  101.1790 143.1730 108.8744
v  101.1790 200.3123 108.8746
v  44.0397 200.3123 108.8744
v  101.1790 208.4853 43.5621
v  44.0397 208.4853 100.7014
v  101.1790 208.4853 100.7014
v  109.3521 200.3123 43.5621
v  109.3521 200.3123 100.7014
v  109.3521 143.1730 100.7014
v  109.3522 143.1730 -99.9230
v  109.3522 200.3123 -99.9229
v  109.3522 200.3123 -42.7838
v  44.0398 208.4853 -99.9230
v  101.1792 208.4853 -42.7838
v  101.1791 208.4853 -99.9230
v  44.0398 200.3123 -108.0961
v  101.1792 200.3123 -108.0962
v  101.1792 143.1730 -108.0961
v  -99.4456 143.1730 -108.0961
v  -99.4456 200.3123 -108.0962
v  -42.3063 200.3122 -108.0961
v  -99.4456 208.4852 -42.7838
v  -42.3063 208.4852 -99.9230
v  -99.4456 208.4853 -99.9230
v  -107.6185 200.3122 -42.7838
v  -107.6187 200.3123 -99.9230
v  -107.6185 143.1730 -99.9230
v  -107.6187 143.1730 100.7014
v  -107.6187 200.3123 100.7014
v  -107.6187 200.3123 43.5622
v  -42.3064 208.4853 100.7014
v  -99.4456 208.4853 43.5622
v  -99.4456 208.4853 100.7015
v  -42.3064 200.3123 108.8746
v  -99.4457 200.3123 108.8746
v  -99.4457 143.1730 108.8746
v  -107.6187 -0.3122 43.5621
v  -107.6187 -0.3122 100.7014
v  -107.6187 56.8270 100.7014
v  -42.3064 -0.3123 108.8744
v  -99.4456 56.8270 108.8744
v  -99.4456 -0.3123 108.8744
v  -42.3064 -8.4853 100.7014
v  -99.4457 -8.4854 100.7014
v  -99.4457 -8.4853 43.5621
v  -42.3063 -0.3123 -108.0962
v  -99.4456 -0.3122 -108.0962
v  -99.4456 56.8270 -108.0962
v  -107.6185 -0.3123 -42.7838
v  -107.6187 56.8270 -99.9232
v  -107.6187 -0.3123 -99.9230
v  -99.4456 -8.4853 -42.7838
v  -99.4456 -8.4854 -99.9232
v  -42.3063 -8.4853 -99.9232
v  109.3521 -0.3122 -42.7838
v  109.3521 -0.3122 -99.9232
v  109.3521 56.8270 -99.9232
v  44.0398 -0.3122 -108.0962
v  101.1791 56.8270 -108.0962
v  101.1790 -0.3123 -108.0962
v  44.0398 -8.4853 -99.9232
v  101.1791 -8.4853 -99.9232
v  101.1791 -8.4853 -42.7838
v  44.0397 -0.3123 108.8746
v  101.1790 -0.3122 108.8746
v  101.1790 56.8270 108.8746
v  109.3519 -0.3123 43.5622
v  109.3521 56.8270 100.7015
v  109.3521 -0.3124 100.7014
v  101.1790 -8.4853 43.5622
v  101.1790 -8.4854 100.7015
v  44.0397 -8.4853 100.7015
# 96 vertices

vn 0.0000 1.0000 -0.0000
vn 0.0000 0.0000 1.0000
vn 1.0000 0.0000 -0.0000
vn 0.0000 0.0000 -1.0000
vn -1.0000 0.0000 -0.0000
vn 0.0000 -1.0000 -0.0000
vn -0.4586 -0.4586 0.7612
vn -0.4586 0.7612 -0.4586
vn 0.7612 -0.4586 -0.4586
vn 0.4606 0.4606 0.7588
vn 0.7588 0.4606 0.4606
vn 0.4606 0.7588 0.4606
vn -0.6057 0.5627 0.5627
vn -0.2567 0.6834 0.6834
vn 0.6834 -0.2567 0.6834
vn 0.5627 -0.6057 0.5627
vn 0.6834 0.6834 -0.2567
vn 0.5627 0.5627 -0.6057
vn 0.7612 -0.4586 0.4586
vn -0.4586 0.7612 0.4586
vn -0.4586 -0.4586 -0.7612
vn 0.7588 0.4606 -0.4606
vn 0.4606 0.4606 -0.7588
vn 0.4606 0.7588 -0.4606
vn 0.5627 0.5627 0.6057
vn 0.6834 0.6834 0.2567
vn 0.6834 -0.2567 -0.6834
vn 0.5627 -0.6057 -0.5627
vn -0.2567 0.6834 -0.6834
vn -0.6057 0.5627 -0.5627
vn 0.4586 -0.4586 -0.7612
vn 0.4586 0.7612 0.4586
vn -0.7612 -0.4586 0.4586
vn -0.4606 0.4606 -0.7588
vn -0.7588 0.4606 -0.4606
vn -0.4606 0.7588 -0.4606
vn 0.6057 0.5627 -0.5627
vn 0.2567 0.6834 -0.6834
vn -0.6834 -0.2567 -0.6834
vn -0.5627 -0.6057 -0.5627
vn -0.6834 0.6834 0.2567
vn -0.5627 0.5627 0.6057
vn -0.7612 -0.4586 -0.4586
vn 0.4586 0.7612 -0.4586
vn 0.4586 -0.4586 0.7612
vn -0.7588 0.4606 0.4606
vn -0.4606 0.4606 0.7588
vn -0.4606 0.7588 0.4606
vn -0.5627 0.5627 -0.6057
vn -0.6834 0.6834 -0.2567
vn -0.6834 -0.2567 0.6834
vn -0.5627 -0.6057 0.5627
vn 0.2567 0.6834 0.6834
vn 0.6057 0.5627 0.5627
vn -0.7612 0.4586 -0.4586
vn 0.4586 0.4586 0.7612
vn 0.4586 -0.7612 -0.4586
vn -0.7588 -0.4606 0.4606
vn -0.4606 -0.7588 0.4606
vn -0.4606 -0.4606 0.7588
vn -0.5627 0.6057 0.5627
vn -0.6834 0.2567 0.6834
vn -0.6834 -0.6834 -0.2567
vn -0.5627 -0.5627 -0.6057
vn 0.2567 -0.6834 0.6834
vn 0.6057 -0.5627 0.5627
vn 0.4586 0.4586 -0.7612
vn -0.7612 0.4586 0.4586
vn 0.4586 -0.7612 0.4586
vn -0.4606 -0.4606 -0.7588
vn -0.4606 -0.7588 -0.4606
vn -0.7588 -0.4606 -0.4606
vn -0.5627 0.6057 -0.5627
vn -0.6834 0.2567 -0.6834
vn 0.2567 -0.6834 -0.6834
vn 0.6057 -0.5627 -0.5627
vn -0.6834 -0.6834 0.2567
vn -0.5627 -0.5627 0.6057
vn 0.7612 0.4586 0.4586
vn -0.4586 0.4586 -0.7612
vn -0.4586 -0.7612 0.4586
vn 0.7588 -0.4606 -0.4606
vn 0.4606 -0.7588 -0.4606
vn 0.4606 -0.4606 -0.7588
vn 0.5627 0.6057 -0.5627
vn 0.6834 0.2567 -0.6834
vn 0.6834 -0.6834 0.2567
vn 0.5627 -0.5627 0.6057
vn -0.2567 -0.6834 -0.6834
vn -0.6057 -0.5627 -0.5627
vn -0.4586 0.4586 0.7612
vn 0.7612 0.4586 -0.4586
vn -0.4586 -0.7612 -0.4586
vn 0.4606 -0.4606 0.7588
vn 0.4606 -0.7588 0.4606
vn 0.7588 -0.4606 0.4606
vn 0.5627 0.6057 0.5627
vn 0.6834 0.2567 0.6834
vn -0.2567 -0.6834 0.6834
vn -0.6057 -0.5627 0.5627
vn 0.6834 -0.6834 -0.2567
vn 0.5627 -0.5627 -0.6057
# 102 vertex normals

vt 0.4831 0.9946 0.0000
vt 0.2357 0.9947 0.0000
vt 0.4830 0.2880 0.0000
vt 0.0060 0.7650 0.0000
vt 0.0060 0.5177 0.0000
vt 0.2357 0.2880 0.0000
vt 0.7127 0.5176 0.0000
vt 0.7127 0.7649 0.0000
vt 0.2357 0.2881 0.0000
vt 0.0060 0.7651 0.0000
vt 0.0059 0.5177 0.0000
vt 0.7126 0.7649 0.0000
vt 0.7126 0.5177 0.0000
vt 0.7126 0.7650 0.0000
vt 0.2356 0.2880 0.0000
vt 0.0060 0.5178 0.0000
vt 0.4828 0.9946 0.0000
vt 0.0059 0.5176 0.0000
vt 0.0059 0.7650 0.0000
vt 0.7125 0.7651 0.0000
vt 0.0061 0.7652 0.0000
vt 0.4832 0.9947 0.0000
vt 0.4829 0.2879 0.0000
vt 0.7126 0.5175 0.0000
vt 0.4831 0.9947 0.0000
vt 0.4830 0.9947 0.0000
vt 0.4252 0.0560 0.0000
vt 0.4335 0.2578 0.0000
vt 0.2318 0.2661 0.0000
vt 0.0282 0.0917 0.0000
vt 0.3137 0.0917 0.0000
vt 0.1710 0.2345 0.0000
vt 0.6554 0.2692 0.0000
vt 0.4536 0.2609 0.0000
vt 0.4620 0.0592 0.0000
vt 0.1915 0.2557 0.0000
vt 0.4114 0.0167 0.0000
vt 0.4757 0.0198 0.0000
vt 0.6957 0.2588 0.0000
vt 0.0085 0.0550 0.0000
vt 0.3333 0.0550 0.0000
vt 0.7857 0.1790 0.0000
vt 0.7448 0.1790 0.0000
vt 0.7652 0.1437 0.0000
vt 0.9817 0.0423 0.0000
vt 0.9605 0.0781 0.0000
vt 0.9401 0.0427 0.0000
vt 0.7857 0.3809 0.0000
vt 0.7652 0.4172 0.0000
vt 0.7448 0.3809 0.0000
vt 0.5700 0.0781 0.0000
vt 0.5488 0.0423 0.0000
vt 0.5904 0.0427 0.0000
# 53 texture coords

g Magic_Box_low
s 4
f 1/1/1 2/2/1 3/3/1 
f 4/4/1 5/5/1 6/6/1 3/3/1 
f 3/3/1 2/2/1 4/4/1 
f 3/3/1 7/7/1 8/8/1 1/1/1 
s 2
f 9/8/2 10/9/2 11/3/2 12/7/2 
s 1
f 9/10/3 12/11/3 13/12/3 
s 2
f 14/13/4 15/14/4 16/15/4 17/3/4 
s 1
f 15/10/5 14/16/5 18/14/5 
s 4
f 16/3/6 11/17/6 17/15/6 
f 19/18/6 11/17/6 10/2/6 20/19/6 
f 11/17/6 19/18/6 17/15/6 
f 11/17/6 16/3/6 21/13/6 22/20/6 
s 2
f 23/16/2 9/8/2 18/21/2 
f 10/9/2 9/8/2 23/16/2 
f 9/8/2 3/22/2 6/2/2 18/21/2 
s 1
f 13/12/3 12/11/3 22/15/3 
f 21/23/3 24/24/3 13/12/3 22/15/3 
f 13/12/3 8/1/3 7/2/3 9/10/3 
s 2
f 24/16/4 15/14/4 13/10/4 
f 16/15/4 15/14/4 24/16/4 
f 15/14/4 2/25/4 1/2/4 13/10/4 
s 1
f 18/14/5 14/16/5 19/15/5 
f 19/15/5 20/3/5 23/13/5 18/14/5 
f 18/14/5 5/26/5 4/2/5 15/10/5 
s 8
f 25/27/7 26/28/2 27/29/7 
f 28/30/8 29/31/8 30/32/1 
f 31/33/9 32/34/3 33/35/9 
f 25/27/7 27/29/7 3/36/5 9/37/6 
f 31/33/9 33/35/9 9/38/6 7/39/4 
f 29/31/8 28/30/8 7/40/4 3/41/5 
s 16
f 26/42/10 32/43/11 30/44/12 
f 3/45/13 27/46/14 29/47/14 
f 25/48/15 9/49/16 33/50/15 
f 31/51/17 7/52/18 28/53/17 
f 29/47/14 27/46/14 26/42/10 30/44/12 
f 25/48/15 33/50/15 32/43/11 26/42/10 
f 30/44/12 32/43/11 31/51/17 28/53/17 
s 8
f 34/27/19 35/28/3 36/29/19 
f 37/30/20 38/31/20 39/32/1 
f 40/33/21 41/34/4 42/35/21 
f 34/27/19 36/29/19 8/36/2 13/37/6 
f 40/33/21 42/35/21 13/38/6 1/39/5 
f 38/31/20 37/30/20 1/40/5 8/41/2 
s 16
f 35/42/22 41/43/23 39/44/24 
f 8/45/25 36/46/26 38/47/26 
f 34/48/27 13/49/28 42/50/27 
f 40/51/29 1/52/30 37/53/29 
f 38/47/26 36/46/26 35/42/22 39/44/24 
f 34/48/27 42/50/27 41/43/23 35/42/22 
f 39/44/24 41/43/23 40/51/29 37/53/29 
s 8
f 43/27/31 44/28/4 45/29/31 
f 46/30/32 47/31/32 48/32/1 
f 49/33/33 50/34/5 51/35/33 
f 43/27/31 45/29/31 2/36/3 15/37/6 
f 49/33/33 51/35/33 15/38/6 4/39/2 
f 47/31/32 46/30/32 4/40/2 2/41/3 
s 16
f 44/42/34 50/43/35 48/44/36 
f 2/45/37 45/46/38 47/47/38 
f 43/48/39 15/49/40 51/50/39 
f 49/51/41 4/52/42 46/53/41 
f 47/47/38 45/46/38 44/42/34 48/44/36 
f 43/48/39 51/50/39 50/43/35 44/42/34 
f 48/44/36 50/43/35 49/51/41 46/53/41 
s 8
f 52/27/43 53/28/5 54/29/43 
f 55/30/44 56/31/44 57/32/1 
f 58/33/45 59/34/2 60/35/45 
f 52/27/43 54/29/43 5/36/4 18/37/6 
f 58/33/45 60/35/45 18/38/6 6/39/3 
f 56/31/44 55/30/44 6/40/3 5/41/4 
s 16
f 53/42/46 59/43/47 57/44/48 
f 5/45/49 54/46/50 56/47/50 
f 52/48/51 18/49/52 60/50/51 
f 58/51/53 6/52/54 55/53/53 
f 56/47/50 54/46/50 53/42/46 57/44/48 
f 52/48/51 60/50/51 59/43/47 53/42/46 
f 57/44/48 59/43/47 58/51/53 55/53/53 
s 8
f 61/27/55 62/28/5 63/29/55 
f 64/30/56 65/31/56 66/32/2 
f 67/33/57 68/34/6 69/35/57 
f 61/27/55 63/29/55 23/36/1 20/37/4 
f 67/33/57 69/35/57 20/38/4 10/39/3 
f 65/31/56 64/30/56 10/40/3 23/41/1 
s 16
f 62/42/58 68/43/59 66/44/60 
f 23/45/61 63/46/62 65/47/62 
f 61/48/63 20/49/64 69/50/63 
f 67/51/65 10/52/66 64/53/65 
f 65/47/62 63/46/62 62/42/58 66/44/60 
f 61/48/63 69/50/63 68/43/59 62/42/58 
f 66/44/60 68/43/59 67/51/65 64/53/65 
s 8
f 70/27/67 71/28/4 72/29/67 
f 73/30/68 74/31/68 75/32/5 
f 76/33/69 77/34/6 78/35/69 
f 70/27/67 72/29/67 14/36/1 17/37/3 
f 76/33/69 78/35/69 17/38/3 19/39/2 
f 74/31/68 73/30/68 19/40/2 14/41/1 
s 16
f 71/42/70 77/43/71 75/44/72 
f 14/45/73 72/46/74 74/47/74 
f 70/48/75 17/49/76 78/50/75 
f 76/51/77 19/52/78 73/53/77 
f 74/47/74 72/46/74 71/42/70 75/44/72 
f 70/48/75 78/50/75 77/43/71 71/42/70 
f 75/44/72 77/43/71 76/51/77 73/53/77 
s 8
f 79/27/79 80/28/3 81/29/79 
f 82/30/80 83/31/80 84/32/4 
f 85/33/81 86/34/6 87/35/81 
f 79/27/79 81/29/79 24/36/1 21/37/2 
f 85/33/81 87/35/81 21/38/2 16/39/5 
f 83/31/80 82/30/80 16/40/5 24/41/1 
s 16
f 80/42/82 86/43/83 84/44/84 
f 24/45/85 81/46/86 83/47/86 
f 79/48/87 21/49/88 87/50/87 
f 85/51/89 16/52/90 82/53/89 
f 83/47/86 81/46/86 80/42/82 84/44/84 
f 79/48/87 87/50/87 86/43/83 80/42/82 
f 84/44/84 86/43/83 85/51/89 82/53/89 
s 8
f 88/27/91 89/28/2 90/29/91 
f 91/30/92 92/31/92 93/32/3 
f 94/33/93 95/34/6 96/35/93 
f 88/27/91 90/29/91 12/36/1 11/37/5 
f 94/33/93 96/35/93 11/38/5 22/39/4 
f 92/31/92 91/30/92 22/40/4 12/41/1 
s 16
f 89/42/94 95/43/95 93/44/96 
f 12/45/97 90/46/98 92/47/98 
f 88/48/99 11/49/100 96/50/99 
f 94/51/101 22/52/102 91/53/101 
f 92/47/98 90/46/98 89/42/94 93/44/96 
f 88/48/99 96/50/99 95/43/95 89/42/94 
f 93/44/96 95/43/95 94/51/101 91/53/101 
# 60 polygons - 68 triangles

